<?xml version="1.0" standalone="no"?>
<!DOCTYPE svg PUBLIC "-//W3C//DTD SVG 20010904//EN"
 "http://www.w3.org/TR/2001/REC-SVG-20010904/DTD/svg10.dtd">
<svg version="1.0" xmlns="http://www.w3.org/2000/svg"
 width="70.000000pt" height="70.000000pt" viewBox="0 0 70.000000 70.000000"
 preserveAspectRatio="xMidYMid meet">
<metadata>
Created by potrace 1.15, written by Peter Selinger 2001-2017
</metadata>
<g transform="translate(0.000000,70.000000) scale(0.100000,-0.100000)"
fill="#000000" stroke="none">
<path d="M216 675 c-109 -45 -109 -36 -19 -228 42 -92 80 -167 84 -167 3 0 11
11 17 25 10 22 7 35 -23 95 -19 38 -35 72 -35 75 0 4 19 5 41 3 47 -3 44 0 98
-118 l39 -84 49 99 c49 100 49 100 86 100 20 0 38 -4 39 -8 2 -14 -164 -367
-173 -367 -5 0 -23 30 -40 67 l-31 68 -30 -68 c-17 -37 -36 -66 -42 -64 -6 2
-56 101 -111 220 -54 120 -104 216 -110 214 -23 -8 -54 -112 -55 -184 0 -151
89 -275 241 -332 177 -68 390 46 446 238 36 125 -3 259 -102 350 -102 92 -244
118 -369 66z"/>
</g>
</svg>
